<svg xmlns="http://www.w3.org/2000/svg" fill="none" viewBox="0 0 24 24" stroke-width="1.5" stroke="currentColor">
  <path stroke-linecap="round" stroke-linejoin="round" d="M20.25 14.15v4.25c0 1.094-.787 2.036-1.872 2.18-2.087.277-4.216.42-6.378.42s-4.291-.143-6.378-.42c-1.085-.144-1.872-1.086-1.872-2.18v-4.25m16.5 0a2.18 2.18 0 00.75-1.661V8.706c0-1.081-.768-2.015-1.837-2.175a48.111 48.111 0 00-3.413-.387m7.5 0V5.25a2.25 2.25 0 00-2.25-2.25H6.75a2.25 2.25 0 00-2.25 2.25v1.281m7.5 0h-7.5m11.25 0v5.85a.75.75 0 01-.75.75h-16.5a.75.75 0 01-.75-.75V8.706c0-1.081.768-2.015 1.837-2.175a48.114 48.114 0 013.413-.387m7.5 0V5.25" />
</svg>
