<svg xmlns="http://www.w3.org/2000/svg" fill="none" viewBox="0 0 24 24" stroke-width="1.5" stroke="currentColor">
  <path stroke-linecap="round" stroke-linejoin="round" d="M9 12h3.75M9 15h3.75M9 18h3.75m3-9H6a2.25 2.25 0 01-2.25-2.25V5.25A2.25 2.25 0 016 3h2.25a2.25 2.25 0 012.25 2.25v.75a2.25 2.25 0 01-2.25 2.25h-3" />
  <path stroke-linecap="round" stroke-linejoin="round" d="M8.25 21h7.5a2.25 2.25 0 002.25-2.25V9a2.25 2.25 0 00-2.25-2.25h-7.5A2.25 2.25 0 006 9v9.75A2.25 2.25 0 008.25 21z" />
</svg>
