<svg xmlns="http://www.w3.org/2000/svg" width="365" height="358" viewBox="0 0 365 358">
<g>
<path d="M 231.99 257.44 C224.19,259.06 207.41,259.58 206.83,258.21 C206.65,257.78 204.36,256.19 201.75,254.67 C197.07,251.96 196.59,251.09 196.85,245.87 C196.92,244.42 196.31,242.67 195.49,241.99 C193.44,240.29 193.62,239.13 196.25,237.00 L 198.50 235.17 L 196.16 232.67 C191.42,227.62 195.95,224.00 202.27,227.80 C205.36,229.66 207.85,229.68 209.06,227.85 C209.36,227.39 213.83,226.71 218.97,226.34 C231.31,225.47 239.77,221.53 248.45,212.63 C257.26,203.59 260.43,195.25 260.44,181.00 C260.45,175.23 260.05,169.60 259.56,168.50 C259.07,167.40 258.60,166.27 258.52,166.00 C256.70,160.25 248.44,149.25 243.35,145.81 C236.83,141.40 229.65,138.00 226.84,138.00 C225.37,138.00 224.00,137.49 223.79,136.86 C223.53,136.08 219.32,135.71 210.62,135.71 C201.11,135.71 197.70,135.38 197.33,134.43 C197.06,133.72 195.44,132.65 193.72,132.05 C190.79,131.03 190.71,130.87 192.30,129.27 C193.90,127.67 194.18,127.68 197.07,129.38 C201.12,131.77 202.11,130.59 198.70,127.42 C196.47,125.36 196.00,124.06 196.00,120.02 C196.00,116.10 195.55,114.78 193.75,113.43 C192.23,112.30 192.07,111.95 193.25,112.35 C194.21,112.67 195.00,112.50 195.00,111.97 C195.00,111.44 195.61,111.00 196.37,111.00 C197.12,111.00 198.95,110.04 200.45,108.86 C202.19,107.49 204.59,106.73 207.16,106.73 C209.37,106.73 211.36,106.23 211.59,105.61 C212.19,104.07 224.04,104.52 231.47,106.36 C234.76,107.17 237.75,107.66 238.11,107.43 C238.93,106.93 245.32,109.06 246.00,110.06 C246.27,110.47 250.10,112.49 254.50,114.56 C261.00,117.61 264.10,119.93 271.00,126.92 C284.17,140.25 290.23,152.61 293.05,171.92 C298.76,210.99 271.48,249.20 231.99,257.44 ZM 106.57 212.89 C104.31,216.54 101.02,210.79 101.01,203.18 C101.00,201.36 100.54,199.00 99.97,197.94 C99.40,196.88 98.68,189.15 98.36,180.76 C98.04,172.37 97.48,164.94 97.10,164.25 C96.73,163.57 96.86,159.60 97.38,155.44 C98.04,150.26 98.00,146.38 97.26,143.18 C96.05,137.94 96.20,113.08 97.47,108.61 C98.15,106.22 97.89,105.43 95.98,103.98 L 93.67 102.25 L 95.76 101.13 C96.91,100.52 98.45,99.41 99.18,98.68 C101.98,95.88 105.43,95.97 111.86,99.01 C117.16,101.52 118.38,102.60 119.96,106.23 L 121.83 110.50 L 116.77 146.00 C113.98,165.52 111.35,181.73 110.93,182.01 C109.70,182.82 108.67,188.00 109.74,188.00 C110.35,188.00 110.37,189.93 109.79,193.25 C109.29,196.14 108.51,201.49 108.07,205.14 C107.62,208.79 106.95,212.28 106.57,212.89 ZM 357.39 349.40 C352.78,351.17 346.61,349.26 343.28,345.05 C340.20,341.14 342.98,332.08 347.89,330.05 C351.99,328.35 358.40,329.05 358.82,331.25 C359.10,332.73 358.37,333.00 354.13,333.00 C350.08,333.00 348.81,333.43 347.56,335.22 C344.16,340.07 347.19,346.00 353.07,346.00 C356.77,346.00 359.88,348.45 357.39,349.40 ZM 337.32 348.60 C336.95,349.56 335.10,350.00 331.39,350.00 L 326.00 350.00 L 326.00 341.50 C326.00,333.48 326.12,333.00 328.14,333.00 C330.12,333.00 330.23,333.37 329.68,338.03 C328.90,344.67 329.52,346.00 333.44,346.00 C337.15,346.00 338.08,346.62 337.32,348.60 ZM 316.38 348.46 C315.81,349.95 312.82,350.38 310.25,349.34 C309.40,348.99 309.00,346.31 309.00,340.92 C309.00,333.49 309.13,333.00 311.14,333.00 C313.13,333.00 313.24,333.38 312.73,338.34 C312.14,344.06 312.52,345.29 315.23,346.29 C316.28,346.67 316.73,347.53 316.38,348.46 ZM 306.00 340.00 C306.00,341.73 305.33,342.00 301.00,342.00 C296.67,342.00 296.00,341.73 296.00,340.00 C296.00,338.27 296.67,338.00 301.00,338.00 C305.33,338.00 306.00,338.27 306.00,340.00 ZM 241.24 338.75 C240.99,339.44 240.16,340.00 239.39,340.00 C238.41,340.00 238.00,338.68 238.00,335.50 C238.00,333.02 238.44,331.00 238.97,331.00 C240.13,331.00 241.87,336.97 241.24,338.75 ZM 336.42 316.39 C334.35,317.19 332.50,317.16 331.67,316.33 C330.17,314.84 331.19,314.00 334.50,314.00 C338.12,314.00 339.19,315.33 336.42,316.39 ZM 244.69 347.28 C246.50,347.55 245.80,347.75 242.75,347.85 C238.62,347.98 238.00,347.74 238.00,346.00 C238.00,343.71 240.51,343.28 241.33,345.43 C241.64,346.21 243.15,347.05 244.69,347.28 ZM 282.42 347.39 C280.10,348.28 279.00,348.14 279.00,346.94 C279.00,346.36 279.40,346.13 279.89,346.43 C280.38,346.73 280.71,346.21 280.64,345.28 C280.56,344.34 281.29,343.41 282.25,343.21 C284.51,342.75 284.66,346.53 282.42,347.39 ZM 95.82 48.67 C95.47,50.51 94.18,51.10 92.21,50.32 C91.22,49.92 91.19,49.48 92.08,48.40 C93.70,46.46 96.22,46.63 95.82,48.67 ZM 288.81 332.26 C289.00,333.22 288.78,333.96 288.32,333.92 C286.30,333.73 285.00,332.72 285.00,331.34 C285.00,329.27 288.39,330.09 288.81,332.26 ZM 210.36 310.50 C210.05,311.33 209.16,312.00 208.39,312.00 C207.63,312.00 207.00,311.33 207.00,310.50 C207.00,309.67 207.89,309.00 208.97,309.00 C210.31,309.00 210.75,309.48 210.36,310.50 ZM 265.00 340.53 C265.00,341.34 264.33,342.00 263.50,342.00 C262.67,342.00 262.00,341.60 262.00,341.11 C262.00,340.62 262.67,339.95 263.50,339.64 C264.41,339.29 265.00,339.64 265.00,340.53 ZM 194.50 139.00 C194.16,139.55 193.49,140.00 193.00,140.00 C192.51,140.00 191.84,139.55 191.50,139.00 C191.16,138.45 191.84,138.00 193.00,138.00 C194.16,138.00 194.84,138.45 194.50,139.00 Z" fill="rgb(24,124,183)"/>
<path d="M 204.50 224.60 C206.70,225.29 212.81,225.90 218.08,225.93 C220.15,225.95 221.80,225.95 223.19,225.90 C221.84,226.09 220.43,226.24 218.97,226.34 C213.83,226.71 209.36,227.39 209.06,227.85 C207.85,229.68 205.36,229.66 202.27,227.80 C195.95,224.00 191.42,227.62 196.16,232.67 L 198.50 235.17 L 196.25 237.00 C193.62,239.13 193.44,240.29 195.49,241.99 C196.31,242.67 196.92,244.42 196.85,245.87 C196.59,251.09 197.07,251.96 201.75,254.67 C204.36,256.19 206.65,257.78 206.83,258.21 C206.84,258.22 206.84,258.24 206.85,258.25 C194.76,256.69 182.89,252.46 173.18,245.94 C161.57,238.14 148.38,221.98 143.94,210.12 C137.98,194.18 137.34,180.61 141.43,157.01 C142.91,148.49 145.88,130.04 148.02,116.01 C155.03,70.19 161.91,26.56 162.78,22.49 C163.07,21.10 163.25,19.89 163.52,19.87 C164.20,19.82 165.47,27.39 170.77,58.89 C171.18,61.35 171.62,63.97 172.09,66.73 C176.09,90.51 179.68,110.48 180.06,111.10 C180.56,111.90 182.64,111.49 187.13,109.71 C198.46,105.23 212.71,103.57 224.59,105.16 C218.33,104.42 212.02,104.50 211.59,105.61 C211.36,106.23 209.37,106.73 207.16,106.73 C204.59,106.73 202.19,107.49 200.45,108.86 C198.95,110.04 197.12,111.00 196.37,111.00 C195.61,111.00 195.00,111.44 195.00,111.97 C195.00,112.50 194.21,112.67 193.25,112.35 C192.07,111.95 192.23,112.30 193.75,113.43 C195.55,114.78 196.00,116.10 196.00,120.02 C196.00,124.06 196.47,125.36 198.70,127.42 C202.11,130.59 201.12,131.77 197.07,129.38 C194.18,127.68 193.90,127.67 192.30,129.27 C190.71,130.87 190.79,131.03 193.72,132.05 C195.44,132.65 197.06,133.72 197.33,134.43 C197.70,135.38 201.11,135.71 210.62,135.71 C219.32,135.71 223.53,136.08 223.79,136.86 C224.00,137.49 225.37,138.00 226.84,138.00 C228.50,138.00 231.67,139.18 235.34,141.06 C223.20,135.50 208.50,135.66 195.24,142.38 C188.41,145.84 179.47,155.26 175.69,162.99 C172.64,169.21 172.50,170.04 172.50,181.52 C172.50,193.14 172.61,193.77 175.85,200.35 C181.44,211.71 191.97,220.62 204.50,224.60 ZM 106.57 212.89 C106.95,212.28 107.62,208.79 108.07,205.14 C108.51,201.49 109.29,196.14 109.79,193.25 C110.37,189.93 110.35,188.00 109.74,188.00 C108.67,188.00 109.70,182.82 110.93,182.01 C111.15,181.86 111.96,177.43 113.08,170.47 C110.41,189.09 108.08,205.92 107.43,211.50 C106.60,218.65 105.58,225.32 105.18,226.33 C104.46,228.15 103.17,221.85 88.95,147.00 C82.07,110.79 82.04,109.44 88.05,102.60 C93.50,96.39 99.77,94.69 107.79,97.36 C103.85,96.09 101.32,96.54 99.18,98.68 C98.45,99.41 96.91,100.52 95.76,101.13 L 93.67 102.25 L 95.98 103.98 C97.89,105.43 98.15,106.22 97.47,108.61 C96.20,113.08 96.05,137.94 97.26,143.18 C98.00,146.38 98.04,150.26 97.38,155.44 C96.86,159.60 96.73,163.57 97.10,164.25 C97.48,164.94 98.04,172.37 98.36,180.76 C98.68,189.15 99.40,196.88 99.97,197.94 C100.54,199.00 101.00,201.36 101.01,203.18 C101.02,210.79 104.31,216.54 106.57,212.89 ZM 120.08 347.08 C117.84,349.31 116.25,349.99 113.33,349.96 C104.20,349.88 99.36,342.00 103.51,333.98 C105.47,330.20 107.83,329.00 113.35,329.00 C117.12,329.00 118.23,329.48 120.41,332.08 C124.20,336.58 124.05,343.10 120.08,347.08 ZM 30.78 348.44 C28.54,350.01 18.01,350.67 16.67,349.33 C16.30,348.97 16.00,344.24 16.00,338.83 L 16.00 329.00 L 22.50 329.00 C27.67,329.00 29.41,329.41 31.00,331.00 C33.28,333.28 33.57,335.99 31.75,337.92 C30.75,338.98 30.75,339.34 31.75,339.71 C33.94,340.51 33.25,346.71 30.78,348.44 ZM 207.78 316.44 C205.31,318.17 204.65,318.31 203.67,317.33 C202.42,316.09 202.99,315.14 205.17,314.82 C209.01,314.26 208.41,312.15 204.31,311.81 C200.73,311.52 200.48,311.28 200.20,307.91 C199.84,303.57 201.41,302.02 206.96,301.28 L 211.00 300.74 L 211.00 310.12 L 214.68 309.81 C218.30,309.50 218.36,309.43 218.43,305.09 C218.53,298.85 220.80,298.52 221.19,304.69 L 221.50 309.50 L 227.91 309.80 C232.36,310.01 234.57,309.71 235.13,308.80 C235.73,307.84 234.96,307.37 232.22,307.00 C228.65,306.52 228.51,306.36 228.82,303.00 C229.19,298.92 231.24,297.00 235.23,297.00 L 238.09 297.00 L 237.50 311.50 L 223.75 311.78 C212.69,312.00 210.00,312.33 210.00,313.47 C210.00,314.25 209.00,315.59 207.78,316.44 ZM 174.63 344.50 C171.91,353.13 170.02,352.17 165.62,339.93 C163.63,334.38 162.00,329.63 162.00,329.36 C162.00,329.08 162.99,329.00 164.20,329.18 C165.92,329.43 166.82,330.84 168.39,335.75 C169.49,339.19 170.65,342.00 170.98,342.00 C171.31,342.00 172.46,339.19 173.54,335.75 C176.11,327.55 178.12,327.09 180.37,334.21 C183.10,342.82 183.53,342.93 185.96,335.62 C187.66,330.53 188.61,329.00 190.08,329.00 C192.66,329.00 192.53,330.03 188.64,340.50 C184.54,351.55 182.56,352.38 179.64,344.25 C178.60,341.36 177.44,339.00 177.06,339.00 C176.68,339.00 175.59,341.48 174.63,344.50 ZM 221.00 346.50 C221.00,348.75 220.52,350.00 219.67,350.00 C217.28,350.00 217.00,348.81 217.00,338.83 L 217.00 329.00 L 223.50 329.00 C228.67,329.00 230.41,329.41 232.00,331.00 C234.62,333.62 234.57,338.43 231.90,341.10 L 229.81 343.19 L 232.56 346.07 C235.00,348.61 235.12,349.02 233.59,349.60 C232.39,350.06 230.71,349.15 228.14,346.63 C223.27,341.88 221.00,341.84 221.00,346.50 ZM 249.75 315.76 C247.92,317.22 244.46,318.13 243.68,317.34 C242.31,315.97 243.06,315.00 245.50,315.00 C249.32,315.00 248.66,312.19 244.75,311.81 C241.81,311.53 241.47,311.15 241.20,307.91 C240.85,303.74 242.05,302.45 247.19,301.49 L 250.88 300.80 L 251.19 305.15 C251.49,309.39 251.59,309.51 255.25,309.81 C258.74,310.10 259.01,309.92 259.15,307.31 C259.24,305.76 259.41,304.05 259.54,303.50 C259.66,302.95 259.82,301.94 259.88,301.25 C259.95,300.56 260.43,300.00 260.95,300.00 C261.47,300.00 262.03,302.14 262.20,304.75 C262.45,308.73 262.82,309.50 264.50,309.50 C266.18,309.50 266.55,308.73 266.80,304.75 C267.03,301.29 267.52,300.00 268.64,300.00 C269.80,300.00 270.05,300.82 269.70,303.47 C269.19,307.23 270.99,310.74 272.85,309.59 C273.48,309.20 274.00,306.88 274.00,304.44 C274.00,301.16 274.39,300.00 275.50,300.00 C276.63,300.00 277.00,301.21 277.00,304.88 C277.00,310.59 275.57,312.21 270.83,311.87 C269.00,311.75 263.79,311.72 259.25,311.82 C253.00,311.96 251.00,312.33 251.00,313.38 C251.00,314.14 250.44,315.21 249.75,315.76 ZM 197.50 348.00 C196.90,349.88 193.00,350.92 193.00,349.20 C193.00,348.32 200.07,332.23 201.32,330.25 C201.76,329.56 203.01,329.00 204.10,329.00 C205.62,329.00 207.01,331.00 210.00,337.51 C212.16,342.19 214.05,346.78 214.21,347.72 C214.64,350.23 211.30,350.53 210.52,348.06 C209.96,346.29 209.04,346.00 204.00,346.00 C199.01,346.00 198.04,346.30 197.50,348.00 ZM 251.81 347.75 C251.54,349.19 250.21,349.55 244.35,349.79 L 237.22 350.08 L 236.86 346.29 C236.66,344.21 236.65,339.46 236.84,335.75 L 237.17 329.00 L 244.59 329.00 C251.33,329.00 252.00,329.18 252.00,331.00 C252.00,332.76 251.33,333.00 246.43,333.00 C241.23,333.00 240.88,333.15 241.18,335.25 C241.46,337.21 242.18,337.54 246.75,337.80 C250.53,338.02 252.00,338.51 252.00,339.55 C252.00,340.64 250.63,341.00 246.50,341.00 C241.30,341.00 241.00,341.14 241.00,343.50 C241.00,345.87 241.30,346.00 246.57,346.00 C251.34,346.00 252.10,346.25 251.81,347.75 ZM 98.00 348.00 C94.28,351.72 83.00,349.80 83.00,345.44 C83.00,343.76 86.11,343.51 87.67,345.07 C88.26,345.66 90.27,346.00 92.12,345.82 C94.65,345.58 95.50,345.03 95.50,343.61 C95.50,342.18 94.29,341.42 90.57,340.47 C83.44,338.66 81.35,335.26 84.76,331.05 C87.34,327.86 93.81,327.21 97.02,329.83 C98.89,331.36 99.22,332.15 98.36,333.02 C97.52,333.88 96.67,333.90 95.17,333.09 C92.64,331.74 89.97,331.72 88.00,333.03 C86.70,333.90 86.76,334.24 88.44,335.52 C89.51,336.33 91.65,337.00 93.19,337.00 C99.05,337.00 102.08,343.92 98.00,348.00 ZM 297.60 313.89 C295.33,316.40 291.85,316.98 288.23,315.46 C284.91,314.06 284.00,312.33 284.00,307.42 C284.00,305.05 284.46,304.00 285.50,304.00 C286.57,304.00 287.00,305.09 287.00,307.80 C287.00,312.14 288.40,314.00 291.68,314.00 C294.56,314.00 297.41,309.86 296.50,306.99 C295.66,304.37 296.88,295.00 298.05,295.00 C298.52,295.00 299.04,298.26 299.21,302.25 L 299.50 309.50 L 302.50 309.50 C305.37,309.50 305.51,309.29 305.80,304.75 C305.97,302.14 306.51,300.00 307.00,300.00 C307.49,300.00 308.03,302.14 308.20,304.75 L 308.50 309.50 L 317.00 310.11 L 317.00 305.06 C317.00,301.23 317.36,300.00 318.50,300.00 C320.38,300.00 320.63,308.97 318.80,310.80 C318.04,311.56 314.23,312.00 308.45,312.00 C300.75,312.00 299.04,312.30 297.60,313.89 ZM 155.36 313.90 C153.29,316.85 146.83,316.80 144.04,313.81 C141.87,311.49 141.18,304.62 143.00,303.50 C143.60,303.13 144.00,304.32 144.00,306.44 C144.00,312.14 149.49,316.11 152.80,312.80 C153.46,312.14 154.00,308.99 154.00,305.80 C154.00,301.41 154.35,300.00 155.45,300.00 C156.46,300.00 156.98,301.42 157.20,304.75 C157.45,308.73 157.82,309.50 159.50,309.50 C161.18,309.50 161.55,308.73 161.80,304.75 C162.17,299.07 164.00,298.34 164.00,303.88 C164.00,307.88 166.31,311.10 167.98,309.41 C168.47,308.91 169.01,306.73 169.18,304.58 C169.67,298.55 172.00,298.73 172.00,304.79 C172.00,307.57 171.45,310.19 170.75,310.74 C170.06,311.29 166.65,311.74 163.17,311.76 C157.88,311.79 156.59,312.14 155.36,313.90 ZM 264.81 345.74 C264.59,348.36 263.97,349.58 262.75,349.82 C261.79,350.00 260.95,349.55 260.88,348.82 C260.37,343.03 260.22,332.17 260.63,330.75 C261.05,329.30 262.32,329.00 268.07,329.00 C274.33,329.00 275.00,329.19 275.00,331.00 C275.00,332.73 274.33,333.00 270.00,333.00 C265.33,333.00 265.00,333.17 265.00,335.50 C265.00,337.83 265.33,338.00 270.00,338.00 C274.33,338.00 275.00,338.27 275.00,340.00 C275.00,341.73 274.33,342.00 270.06,342.00 L 265.12 342.00 ZM 288.81 332.26 C288.39,330.09 285.00,329.27 285.00,331.34 C285.00,332.01 285.31,332.59 285.86,333.04 L 282.22 332.80 C278.68,332.58 277.44,332.07 277.19,330.75 C276.89,329.20 277.78,329.00 284.93,329.00 C290.73,329.00 292.99,329.35 292.97,330.25 C292.96,330.94 290.93,334.17 288.47,337.42 C282.75,345.00 282.76,346.00 288.57,346.00 C292.39,346.00 293.09,346.29 292.81,347.75 C292.53,349.21 291.18,349.55 284.74,349.79 C275.22,350.15 275.09,349.68 281.96,340.06 L 286.63 333.50 C287.11,333.72 287.68,333.86 288.32,333.92 C288.78,333.96 289.00,333.22 288.81,332.26 ZM 129.81 345.74 C129.60,348.27 128.96,349.59 127.84,349.80 C125.53,350.23 125.42,349.70 125.49,339.00 L 125.56 329.50 L 133.03 329.50 C139.00,329.50 140.50,329.80 140.50,331.00 C140.50,332.10 139.12,332.58 135.25,332.80 C130.43,333.08 130.00,333.30 130.00,335.55 C130.00,337.82 130.36,338.00 135.00,338.00 C139.33,338.00 140.00,338.27 140.00,340.00 C140.00,341.73 139.33,342.00 135.06,342.00 L 130.12 342.00 ZM 107.56 343.78 C108.64,345.33 110.13,346.00 112.50,346.00 C116.37,346.00 119.00,343.16 119.00,338.97 C119.00,335.02 116.76,332.67 112.99,332.67 C107.17,332.67 104.13,338.89 107.56,343.78 ZM 58.00 348.00 C58.00,349.80 57.33,350.00 51.17,350.00 C47.41,350.00 44.03,349.70 43.67,349.33 C42.83,348.50 42.78,332.73 43.61,330.58 C43.94,329.71 45.07,329.00 46.11,329.00 C47.82,329.00 48.00,329.83 48.00,337.50 L 48.00 346.00 L 53.00 346.00 C57.33,346.00 58.00,346.27 58.00,348.00 ZM 75.00 348.00 C75.00,349.81 74.33,350.00 67.97,350.00 C63.04,350.00 60.78,349.60 60.43,348.67 C60.15,347.94 60.05,343.33 60.21,338.42 C60.48,330.03 60.63,329.48 62.75,329.18 C64.93,328.87 65.00,329.12 65.00,337.43 L 65.00 346.00 L 70.00 346.00 C74.33,346.00 75.00,346.27 75.00,348.00 ZM 23.00 311.50 C23.00,314.83 22.61,316.00 21.50,316.00 C19.75,316.00 19.47,311.53 20.98,307.57 C21.69,305.69 22.67,305.00 24.65,305.00 C26.13,305.00 28.05,304.36 28.92,303.58 C33.22,299.71 39.00,301.32 39.00,306.38 C39.00,312.02 31.70,314.23 29.51,309.25 C28.83,307.70 27.67,307.00 25.76,307.00 C23.16,307.00 23.00,307.25 23.00,311.50 ZM 52.00 307.21 C49.79,307.47 49.44,308.09 48.95,312.50 C48.27,318.67 46.72,316.35 47.19,309.86 C47.47,305.86 47.74,305.47 50.45,305.16 C52.07,304.98 54.50,303.97 55.84,302.91 C58.60,300.74 62.03,300.43 63.80,302.20 C65.46,303.86 65.31,309.50 63.56,310.95 C61.29,312.83 56.64,311.83 55.50,309.21 C54.78,307.55 53.81,307.00 52.00,307.21 ZM 153.00 341.56 C153.00,347.93 152.67,350.00 151.67,350.00 C149.34,350.00 149.00,348.85 149.00,340.90 C149.00,333.18 148.98,333.13 146.26,332.82 C144.61,332.63 143.39,331.81 143.19,330.75 C142.89,329.19 143.81,329.00 151.50,329.00 C159.19,329.00 160.11,329.19 159.82,330.75 C159.60,331.90 158.38,332.61 156.24,332.81 L 153.00 333.13 ZM 117.74 312.62 C118.20,315.59 117.01,317.68 115.64,316.31 C114.52,315.19 114.95,307.45 116.20,306.20 C116.86,305.54 118.60,305.00 120.08,305.00 C121.55,305.00 123.33,304.30 124.04,303.45 C124.87,302.45 126.59,302.01 128.91,302.20 C132.45,302.50 132.50,302.56 132.50,307.00 L 132.50 311.50 L 128.50 311.50 C125.31,311.50 124.30,311.04 123.51,309.25 C122.44,306.82 118.48,306.13 117.72,308.25 C117.47,308.94 117.48,310.91 117.74,312.62 ZM 13.00 329.00 L 13.00 350.00 L 8.00 350.00 L 8.00 329.00 ZM 40.00 329.00 L 40.00 350.00 L 35.00 350.00 L 35.00 329.00 ZM 344.80 314.70 C343.75,315.53 339.98,316.17 336.46,316.38 C339.18,315.32 338.10,314.00 334.50,314.00 C331.22,314.00 330.19,314.82 331.62,316.29 C331.10,316.22 330.66,316.12 330.34,315.99 C327.33,314.79 326.48,311.44 328.44,308.45 C330.89,304.72 333.18,305.13 330.84,308.88 C328.61,312.46 330.42,314.00 336.86,314.00 C341.02,314.00 342.95,313.58 343.32,312.60 C344.06,310.68 343.16,310.00 339.89,310.00 C336.33,310.00 335.51,308.59 337.00,305.01 C338.32,301.81 340.36,300.66 343.14,301.54 C345.85,302.40 345.41,303.82 342.33,304.18 C338.53,304.63 338.51,306.25 342.27,308.00 C345.72,309.60 346.99,312.97 344.80,314.70 ZM 104.00 315.88 C104.00,317.01 100.96,317.82 99.00,317.21 C91.74,314.94 92.82,305.00 100.33,305.00 C104.49,305.00 103.36,301.46 99.00,300.85 C95.67,300.38 95.80,298.58 99.20,298.19 C101.42,297.93 102.35,298.60 104.45,301.92 C105.85,304.14 107.00,306.39 107.00,306.93 C107.00,307.46 104.91,308.03 102.35,308.20 C96.70,308.57 94.28,311.21 97.44,313.56 C98.51,314.35 100.42,315.00 101.69,315.00 C102.96,315.00 104.00,315.40 104.00,315.88 ZM 183.78 316.44 C181.43,318.09 181.22,318.13 179.25,317.34 C177.14,316.49 177.86,315.00 180.39,315.00 C183.33,315.00 184.00,313.40 184.00,306.42 C184.00,300.03 185.75,299.09 186.19,305.25 C186.50,309.49 186.51,309.50 190.50,309.50 L 194.50 309.50 L 194.80 304.75 C195.24,297.90 197.00,298.90 197.00,306.00 L 197.00 312.00 L 191.50 312.00 C187.37,312.00 186.00,312.36 186.00,313.44 C186.00,314.24 185.00,315.59 183.78,316.44 ZM 94.85 52.90 C93.12,53.51 91.62,54.00 91.53,54.00 C91.43,54.00 90.30,52.88 89.02,51.52 L 86.69 49.04 L 91.09 47.04 C97.20,44.27 98.00,44.43 98.00,48.40 C98.00,51.32 97.55,51.96 94.85,52.90 ZM 87.77 59.81 C86.75,62.50 86.05,63.00 83.28,63.00 C79.36,63.00 79.00,61.15 81.99,56.25 C84.27,52.51 85.06,52.30 87.33,54.81 C88.71,56.34 88.78,57.12 87.77,59.81 ZM 85.50 301.50 L 86.10 312.00 L 80.05 312.00 C72.91,312.00 71.87,310.25 78.75,309.80 C83.29,309.51 83.50,309.37 83.50,306.50 C83.50,303.76 83.18,303.47 79.75,303.19 C74.20,302.73 75.15,300.84 80.75,301.20 ZM 221.00 336.00 C221.00,339.05 221.09,339.11 225.25,338.81 C229.03,338.53 229.50,338.23 229.50,336.00 C229.50,333.77 229.03,333.47 225.25,333.19 C221.09,332.89 221.00,332.95 221.00,336.00 ZM 20.67 345.33 C21.62,346.29 26.25,346.13 27.90,345.09 C30.57,343.39 28.31,341.00 24.03,341.00 C20.79,341.00 20.00,341.36 20.00,342.83 C20.00,343.84 20.30,344.97 20.67,345.33 ZM 20.00 335.00 C20.00,336.87 20.49,337.08 24.25,336.81 C27.22,336.59 28.50,336.05 28.50,335.00 C28.50,333.95 27.22,333.41 24.25,333.19 C20.49,332.92 20.00,333.13 20.00,335.00 ZM 201.60 338.75 L 199.95 342.00 L 203.47 342.00 C205.41,342.00 207.00,341.75 207.00,341.45 C207.00,340.51 203.87,334.79 203.55,335.16 C203.39,335.35 202.51,336.96 201.60,338.75 ZM 126.05 308.56 C127.94,310.83 130.45,309.87 130.82,306.74 C131.09,304.38 130.78,304.00 128.54,304.00 C125.51,304.00 124.22,306.36 126.05,308.56 ZM 316.38 348.46 C316.73,347.53 316.28,346.67 315.23,346.29 C314.75,346.11 314.34,345.92 314.00,345.71 C314.67,346.01 315.70,346.01 317.23,346.00 C317.48,346.00 317.73,346.00 318.00,346.00 C322.33,346.00 323.00,346.27 323.00,348.00 C323.00,349.78 322.36,349.99 317.25,349.92 C316.22,349.91 315.19,349.87 314.25,349.82 C315.30,349.63 316.11,349.16 316.38,348.46 ZM 32.25 309.34 C34.40,310.20 34.90,310.05 35.83,308.25 C37.14,305.70 36.18,304.00 33.42,304.00 C31.53,304.00 31.00,304.53 31.00,306.42 C31.00,307.75 31.56,309.06 32.25,309.34 ZM 243.36 308.50 C243.68,309.33 244.85,310.00 245.97,310.00 C247.56,310.00 248.00,309.35 248.00,307.00 C248.00,304.65 247.56,304.00 245.97,304.00 C243.73,304.00 242.47,306.17 243.36,308.50 ZM 58.05 308.56 C59.92,310.81 62.50,309.90 62.50,306.99 C62.50,305.17 61.89,304.41 60.25,304.18 C57.52,303.79 56.23,306.37 58.05,308.56 ZM 241.24 338.75 C241.87,336.97 240.13,331.00 238.97,331.00 C238.44,331.00 238.00,333.02 238.00,335.50 C238.00,338.68 238.41,340.00 239.39,340.00 C240.16,340.00 240.99,339.44 241.24,338.75 ZM 203.18 307.33 C202.89,309.79 203.16,310.12 205.18,309.83 C206.88,309.59 207.59,308.75 207.82,306.67 C208.11,304.21 207.84,303.88 205.82,304.17 C204.12,304.41 203.41,305.25 203.18,307.33 ZM 329.92 334.04 C329.77,333.12 329.25,333.00 328.14,333.00 C326.12,333.00 326.00,333.48 326.00,341.50 L 326.00 346.07 L 325.81 340.75 C325.41,329.82 325.58,329.00 328.25,329.00 C329.93,329.00 330.21,329.35 329.92,334.04 ZM 231.17 302.83 C230.90,304.77 231.23,305.10 233.17,304.83 C234.72,304.61 235.61,303.72 235.83,302.17 C236.10,300.23 235.77,299.90 233.83,300.17 C232.28,300.39 231.39,301.28 231.17,302.83 ZM 313.37 345.20 C312.38,344.13 312.32,342.33 312.73,338.34 C313.24,333.38 313.13,333.00 311.14,333.00 C309.25,333.00 309.02,333.44 309.00,339.71 C309.00,339.45 309.00,339.19 309.00,338.92 C309.00,329.50 309.11,329.00 311.10,329.00 C313.07,329.00 313.19,329.47 312.96,336.25 C312.95,336.74 312.93,337.20 312.92,337.65 C312.76,342.16 312.69,344.24 313.37,345.20 ZM 244.69 347.28 C243.15,347.05 241.64,346.21 241.33,345.43 C240.51,343.28 238.00,343.71 238.00,346.00 C238.00,347.74 238.62,347.98 242.75,347.85 C245.80,347.75 246.50,347.55 244.69,347.28 ZM 282.42 347.39 C284.66,346.53 284.51,342.75 282.25,343.21 C281.29,343.41 280.56,344.34 280.64,345.28 C280.71,346.21 280.38,346.73 279.89,346.43 C279.40,346.13 279.00,346.36 279.00,346.94 C279.00,348.14 280.10,348.28 282.42,347.39 ZM 95.82 48.67 C96.22,46.63 93.70,46.46 92.08,48.40 C91.19,49.48 91.22,49.92 92.21,50.32 C94.18,51.10 95.47,50.51 95.82,48.67 ZM 337.32 348.60 C338.08,346.62 337.15,346.00 333.44,346.00 C332.14,346.00 331.20,345.85 330.56,345.42 C331.48,345.79 333.07,346.00 335.08,346.00 C339.33,346.00 340.00,346.27 340.00,348.00 C340.00,349.81 339.33,350.00 333.07,350.00 L 331.39 350.00 C335.10,350.00 336.95,349.56 337.32,348.60 ZM 358.11 348.94 C359.03,347.83 356.27,346.00 353.07,346.00 C352.46,346.00 351.88,345.94 351.34,345.82 C352.26,345.90 353.43,345.80 355.11,345.58 C359.08,345.05 360.00,345.21 360.00,346.43 C360.00,347.24 359.15,348.36 358.11,348.94 ZM 113.00 310.50 C113.00,312.02 110.88,312.55 109.67,311.33 C108.40,310.07 109.01,309.00 111.00,309.00 C112.11,309.00 113.00,309.67 113.00,310.50 ZM 139.00 310.50 C139.00,312.02 136.88,312.55 135.67,311.33 C134.40,310.07 135.01,309.00 137.00,309.00 C138.11,309.00 139.00,309.67 139.00,310.50 ZM 70.50 309.99 C70.50,310.80 69.67,311.63 68.66,311.83 C67.32,312.08 66.92,311.68 67.17,310.34 C67.59,308.15 70.50,307.84 70.50,309.99 ZM 210.36 310.50 C210.75,309.48 210.31,309.00 208.97,309.00 C207.89,309.00 207.00,309.67 207.00,310.50 C207.00,311.33 207.63,312.00 208.39,312.00 C209.16,312.00 210.05,311.33 210.36,310.50 ZM 300.57 338.00 C296.62,338.02 296.00,338.33 296.00,340.00 C296.00,341.67 296.62,341.98 300.57,342.00 C300.39,342.00 300.20,342.00 300.00,342.00 C294.67,342.00 294.00,341.78 294.00,340.00 C294.00,338.22 294.67,338.00 300.00,338.00 C300.20,338.00 300.39,338.00 300.57,338.00 ZM 44.00 310.50 C44.00,311.33 43.33,312.00 42.50,312.00 C41.67,312.00 41.00,311.33 41.00,310.50 C41.00,309.67 41.67,309.00 42.50,309.00 C43.33,309.00 44.00,309.67 44.00,310.50 ZM 265.00 340.53 C265.00,339.64 264.41,339.29 263.50,339.64 C262.67,339.95 262.00,340.62 262.00,341.11 C262.00,341.60 262.67,342.00 263.50,342.00 C264.33,342.00 265.00,341.34 265.00,340.53 ZM 194.50 139.00 C194.84,138.45 194.16,138.00 193.00,138.00 C191.84,138.00 191.16,138.45 191.50,139.00 C191.84,139.55 192.51,140.00 193.00,140.00 C193.49,140.00 194.16,139.55 194.50,139.00 ZM 219.00 297.00 C219.00,297.55 218.32,298.00 217.50,298.00 C216.68,298.00 216.00,297.55 216.00,297.00 C216.00,296.45 216.68,296.00 217.50,296.00 C218.32,296.00 219.00,296.45 219.00,297.00 ZM 166.81 296.92 C167.01,297.52 166.42,298.00 165.50,298.00 C164.58,298.00 163.99,297.52 164.19,296.92 C164.39,296.33 164.98,295.85 165.50,295.85 C166.02,295.85 166.61,296.33 166.81,296.92 ZM 164.00 294.00 C164.00,294.55 163.55,295.00 163.00,295.00 C162.45,295.00 162.00,294.55 162.00,294.00 C162.00,293.45 162.45,293.00 163.00,293.00 C163.55,293.00 164.00,293.45 164.00,294.00 ZM 235.00 294.00 C235.00,294.55 234.55,295.00 234.00,295.00 C233.45,295.00 233.00,294.55 233.00,294.00 C233.00,293.45 233.45,293.00 234.00,293.00 C234.55,293.00 235.00,293.45 235.00,294.00 ZM 223.00 297.00 C223.00,297.55 222.55,298.00 222.00,298.00 C221.45,298.00 221.00,297.55 221.00,297.00 C221.00,296.45 221.45,296.00 222.00,296.00 C222.55,296.00 223.00,296.45 223.00,297.00 ZM 306.00 315.00 C306.00,315.55 305.55,316.00 305.00,316.00 C304.45,316.00 304.00,315.55 304.00,315.00 C304.00,314.45 304.45,314.00 305.00,314.00 C305.55,314.00 306.00,314.45 306.00,315.00 ZM 251.60 209.14 C254.04,206.01 256.03,202.58 257.47,198.96 C258.08,197.42 258.56,196.13 258.95,194.93 C257.60,200.24 255.25,204.71 251.60,209.14 ZM 233.04 223.37 C233.65,223.09 234.31,222.77 235.04,222.41 C238.16,220.90 241.07,219.07 243.72,217.00 C240.32,219.79 236.84,221.87 233.04,223.37 ZM 231.99 257.44 C227.35,258.40 222.53,258.89 217.64,258.92 C222.66,258.72 228.32,258.20 231.99,257.44 ZM 329.59 343.94 C329.28,342.78 329.34,341.00 329.65,338.33 C329.53,340.69 329.51,342.79 329.59,343.94 ZM 242.80 145.44 C242.98,145.56 243.17,145.68 243.35,145.81 C244.45,146.55 245.70,147.65 246.99,148.97 C245.67,147.69 244.26,146.51 242.80,145.44 ZM 254.24 157.96 C256.24,160.93 257.83,163.84 258.52,166.00 C257.93,164.16 256.30,161.12 254.24,157.96 ZM 121.14 115.36 L 121.83 110.50 L 119.96 106.23 C119.28,104.66 118.66,103.57 117.75,102.63 C118.66,103.57 119.28,104.66 119.97,106.23 L 121.85 110.50 ZM 348.40 344.39 C347.74,343.84 347.21,343.16 346.83,342.41 C347.15,343.01 347.58,343.58 348.11,344.11 C348.21,344.21 348.31,344.31 348.40,344.39 ZM 242.25 108.23 C243.98,108.81 245.66,109.56 246.00,110.06 C245.67,109.57 243.99,108.82 242.25,108.23 ZM 112.95 99.54 C112.61,99.37 112.24,99.19 111.86,99.01 C111.48,98.83 111.11,98.66 110.75,98.50 C111.09,98.65 111.44,98.81 111.80,98.98 C112.21,99.17 112.59,99.36 112.95,99.54 Z" fill="rgb(39,104,168)"/>
<path d="M 98.00 81.50 C98.00,84.48 97.67,84.99 95.75,84.94 C93.30,84.87 87.00,82.03 87.00,80.99 C87.00,80.64 88.13,79.29 89.51,77.99 C91.45,76.17 92.30,75.90 93.21,76.81 C93.87,77.47 95.21,78.00 96.20,78.00 C97.59,78.00 98.00,78.80 98.00,81.50 ZM 118.01 74.75 C116.92,76.54 115.88,78.00 115.69,78.00 C115.50,78.00 114.38,76.96 113.19,75.70 C111.26,73.65 111.16,73.04 112.23,70.20 C113.25,67.50 113.95,67.00 116.72,67.00 C119.46,67.00 120.00,67.37 120.00,69.25 C119.99,70.49 119.10,72.96 118.01,74.75 ZM 86.81 75.70 C85.62,76.96 84.35,78.00 83.98,78.00 C83.02,78.00 80.13,70.84 80.24,68.75 C80.31,67.48 81.18,67.00 83.45,67.00 C86.03,67.00 86.77,67.54 87.77,70.20 C88.84,73.04 88.74,73.65 86.81,75.70 ZM 111.77 81.65 C109.99,83.41 103.38,86.05 102.63,85.29 C102.28,84.95 102.00,83.42 102.00,81.91 C102.00,79.81 102.76,78.77 105.17,77.56 C108.19,76.06 108.46,76.09 110.70,78.18 C112.59,79.96 112.80,80.63 111.77,81.65 ZM 120.00 62.02 C120.00,62.56 118.67,63.00 117.04,63.00 C113.99,63.00 112.00,60.79 112.00,57.43 C112.00,55.87 114.60,53.11 116.14,53.03 C116.83,53.00 120.00,60.39 120.00,62.02 ZM 336.42 316.39 C336.43,316.39 336.45,316.38 336.46,316.38 C339.98,316.17 343.75,315.53 344.80,314.70 C345.12,314.45 345.37,314.16 345.54,313.84 C344.97,315.09 343.55,316.00 341.33,316.00 C339.63,316.00 339.00,316.49 339.21,317.65 C339.37,318.55 338.92,319.49 338.22,319.74 C337.51,319.99 337.00,319.81 337.09,319.34 C337.37,317.76 337.06,316.99 335.67,316.65 C335.91,316.58 336.16,316.49 336.42,316.39 ZM 327.77 313.60 C326.71,311.83 326.88,310.58 328.37,308.56 C327.28,310.29 327.12,312.13 327.77,313.60 ZM 331.33 308.03 C331.21,308.26 331.08,308.50 330.91,308.77 C329.67,310.76 329.61,312.13 330.84,312.96 C329.61,312.14 329.64,310.80 330.84,308.88 C331.03,308.57 331.19,308.29 331.33,308.03 ZM 344.81 309.89 C344.20,309.16 343.34,308.50 342.27,308.00 C343.38,308.51 344.22,309.17 344.81,309.89 Z" fill="rgb(147,185,213)"/>
<path d="M 0.00 179.00 L 0.00 0.00 L 182.50 0.00 L 365.00 0.00 L 365.00 179.00 L 365.00 358.00 L 182.50 358.00 L 0.00 358.00 L 0.00 179.00 ZM 13.00 339.50 L 13.00 329.00 L 10.50 329.00 L 8.00 329.00 L 8.00 339.50 L 8.00 350.00 L 10.50 350.00 L 13.00 350.00 L 13.00 339.50 ZM 30.78 348.44 C33.25,346.71 33.94,340.51 31.75,339.71 C30.75,339.34 30.75,338.98 31.75,337.92 C33.57,335.99 33.28,333.28 31.00,331.00 C29.41,329.41 27.67,329.00 22.50,329.00 L 16.00 329.00 L 16.00 338.83 C16.00,344.24 16.30,348.97 16.67,349.33 C18.01,350.67 28.54,350.01 30.78,348.44 ZM 40.00 339.50 L 40.00 329.00 L 37.50 329.00 L 35.00 329.00 L 35.00 339.50 L 35.00 350.00 L 37.50 350.00 L 40.00 350.00 L 40.00 339.50 ZM 58.00 348.00 C58.00,346.27 57.33,346.00 53.00,346.00 L 48.00 346.00 L 48.00 337.50 C48.00,329.83 47.82,329.00 46.11,329.00 C45.07,329.00 43.94,329.71 43.61,330.58 C42.78,332.73 42.83,348.50 43.67,349.33 C44.03,349.70 47.41,350.00 51.17,350.00 C57.33,350.00 58.00,349.80 58.00,348.00 ZM 75.00 348.00 C75.00,346.27 74.33,346.00 70.00,346.00 L 65.00 346.00 L 65.00 337.43 C65.00,329.12 64.93,328.87 62.75,329.18 C60.63,329.48 60.48,330.03 60.21,338.42 C60.05,343.33 60.15,347.94 60.43,348.67 C60.78,349.60 63.04,350.00 67.97,350.00 C74.33,350.00 75.00,349.81 75.00,348.00 ZM 98.00 348.00 C102.08,343.92 99.05,337.00 93.19,337.00 C91.65,337.00 89.51,336.33 88.44,335.52 C86.76,334.24 86.70,333.90 88.00,333.03 C89.97,331.72 92.64,331.74 95.17,333.09 C96.67,333.90 97.52,333.88 98.36,333.02 C99.22,332.15 98.89,331.36 97.02,329.83 C93.81,327.21 87.34,327.86 84.76,331.05 C81.35,335.26 83.44,338.66 90.57,340.47 C94.29,341.42 95.50,342.18 95.50,343.61 C95.50,345.03 94.65,345.58 92.12,345.82 C90.27,346.00 88.26,345.66 87.67,345.07 C86.11,343.51 83.00,343.76 83.00,345.44 C83.00,349.80 94.28,351.72 98.00,348.00 ZM 120.08 347.08 C124.05,343.10 124.20,336.58 120.41,332.08 C118.23,329.48 117.12,329.00 113.35,329.00 C107.83,329.00 105.47,330.20 103.51,333.98 C99.36,342.00 104.20,349.88 113.33,349.96 C116.25,349.99 117.84,349.31 120.08,347.08 ZM 129.81 345.74 L 130.12 342.00 L 135.06 342.00 C139.33,342.00 140.00,341.73 140.00,340.00 C140.00,338.27 139.33,338.00 135.00,338.00 C130.36,338.00 130.00,337.82 130.00,335.55 C130.00,333.30 130.43,333.08 135.25,332.80 C139.12,332.58 140.50,332.10 140.50,331.00 C140.50,329.80 139.00,329.50 133.03,329.50 L 125.56 329.50 L 125.49 339.00 C125.42,349.70 125.53,350.23 127.84,349.80 C128.96,349.59 129.60,348.27 129.81,345.74 ZM 153.00 341.56 L 153.00 333.13 L 156.24 332.81 C158.38,332.61 159.60,331.90 159.82,330.75 C160.11,329.19 159.19,329.00 151.50,329.00 C143.81,329.00 142.89,329.19 143.19,330.75 C143.39,331.81 144.61,332.63 146.26,332.82 C148.98,333.13 149.00,333.18 149.00,340.90 C149.00,348.85 149.34,350.00 151.67,350.00 C152.67,350.00 153.00,347.93 153.00,341.56 ZM 174.63 344.50 C175.59,341.48 176.68,339.00 177.06,339.00 C177.44,339.00 178.60,341.36 179.64,344.25 C182.56,352.38 184.54,351.55 188.64,340.50 C192.53,330.03 192.66,329.00 190.08,329.00 C188.61,329.00 187.66,330.53 185.96,335.62 C183.53,342.93 183.10,342.82 180.37,334.21 C178.12,327.09 176.11,327.55 173.54,335.75 C172.46,339.19 171.31,342.00 170.98,342.00 C170.65,342.00 169.49,339.19 168.39,335.75 C166.82,330.84 165.92,329.43 164.20,329.18 C162.99,329.00 162.00,329.08 162.00,329.36 C162.00,329.63 163.63,334.38 165.62,339.93 C170.02,352.17 171.91,353.13 174.63,344.50 ZM 197.50 348.00 C198.04,346.30 199.01,346.00 204.00,346.00 C209.04,346.00 209.96,346.29 210.52,348.06 C211.30,350.53 214.64,350.23 214.21,347.72 C214.05,346.78 212.16,342.19 210.00,337.51 C207.01,331.00 205.62,329.00 204.10,329.00 C203.01,329.00 201.76,329.56 201.32,330.25 C200.07,332.23 193.00,348.32 193.00,349.20 C193.00,350.92 196.90,349.88 197.50,348.00 ZM 221.00 346.50 C221.00,341.84 223.27,341.88 228.14,346.63 C230.71,349.15 232.39,350.06 233.59,349.60 C235.12,349.02 235.00,348.61 232.56,346.07 L 229.81 343.19 L 231.90 341.10 C234.57,338.43 234.62,333.62 232.00,331.00 C230.41,329.41 228.67,329.00 223.50,329.00 L 217.00 329.00 L 217.00 338.83 C217.00,348.81 217.28,350.00 219.67,350.00 C220.52,350.00 221.00,348.75 221.00,346.50 ZM 251.81 347.75 C252.10,346.25 251.34,346.00 246.57,346.00 C241.30,346.00 241.00,345.87 241.00,343.50 C241.00,341.14 241.30,341.00 246.50,341.00 C250.63,341.00 252.00,340.64 252.00,339.55 C252.00,338.51 250.53,338.02 246.75,337.80 C242.18,337.54 241.46,337.21 241.18,335.25 C240.88,333.15 241.23,333.00 246.43,333.00 C251.33,333.00 252.00,332.76 252.00,331.00 C252.00,329.18 251.33,329.00 244.59,329.00 L 237.17 329.00 L 236.84 335.75 C236.65,339.46 236.66,344.21 236.86,346.29 L 237.22 350.08 L 244.35 349.79 C250.21,349.55 251.54,349.19 251.81,347.75 ZM 264.81 345.74 L 265.12 342.00 L 270.06 342.00 C274.33,342.00 275.00,341.73 275.00,340.00 C275.00,338.27 274.33,338.00 270.00,338.00 C265.33,338.00 265.00,337.83 265.00,335.50 C265.00,333.17 265.33,333.00 270.00,333.00 C274.33,333.00 275.00,332.73 275.00,331.00 C275.00,329.19 274.33,329.00 268.07,329.00 C262.32,329.00 261.05,329.30 260.63,330.75 C260.22,332.17 260.37,343.03 260.88,348.82 C260.95,349.55 261.79,350.00 262.75,349.82 C263.97,349.58 264.59,348.36 264.81,345.74 ZM 292.81 347.75 C293.09,346.29 292.39,346.00 288.57,346.00 C282.76,346.00 282.75,345.00 288.47,337.42 C290.93,334.17 292.96,330.94 292.97,330.25 C292.99,329.35 290.73,329.00 284.93,329.00 C277.78,329.00 276.89,329.20 277.19,330.75 C277.44,332.07 278.68,332.58 282.22,332.80 L 286.92 333.11 L 281.96 340.06 C275.09,349.68 275.22,350.15 284.74,349.79 C291.18,349.55 292.53,349.21 292.81,347.75 ZM 323.00 348.00 C323.00,346.27 322.33,346.00 318.00,346.00 C312.36,346.00 312.62,346.51 312.96,336.25 C313.19,329.47 313.07,329.00 311.10,329.00 C309.11,329.00 309.00,329.50 309.00,338.92 C309.00,345.91 309.37,348.98 310.25,349.34 C310.94,349.62 314.09,349.88 317.25,349.92 C322.36,349.99 323.00,349.78 323.00,348.00 ZM 340.00 348.00 C340.00,346.27 339.33,346.00 335.08,346.00 C332.06,346.00 329.99,345.52 329.71,344.75 C329.46,344.06 329.49,340.24 329.77,336.25 C330.26,329.45 330.16,329.00 328.25,329.00 C325.58,329.00 325.41,329.82 325.81,340.75 L 326.14 350.00 L 333.07 350.00 C339.33,350.00 340.00,349.81 340.00,348.00 ZM 358.07 348.96 C359.13,348.40 360.00,347.25 360.00,346.43 C360.00,345.21 359.08,345.05 355.11,345.58 C350.96,346.13 349.91,345.91 348.11,344.11 C345.61,341.61 345.40,338.30 347.56,335.22 C348.81,333.43 350.08,333.00 354.13,333.00 C358.37,333.00 359.10,332.73 358.82,331.25 C358.40,329.05 351.99,328.35 347.89,330.05 C342.98,332.08 340.20,341.14 343.28,345.05 C346.84,349.56 353.60,351.36 358.07,348.96 ZM 306.00 340.00 C306.00,338.22 305.33,338.00 300.00,338.00 C294.67,338.00 294.00,338.22 294.00,340.00 C294.00,341.78 294.67,342.00 300.00,342.00 C305.33,342.00 306.00,341.78 306.00,340.00 ZM 339.21 317.65 C339.00,316.49 339.63,316.00 341.33,316.00 C346.81,316.00 347.47,310.41 342.27,308.00 C338.51,306.25 338.53,304.63 342.33,304.18 C345.41,303.82 345.85,302.40 343.14,301.54 C340.36,300.66 338.32,301.81 337.00,305.01 C335.51,308.59 336.33,310.00 339.89,310.00 C343.16,310.00 344.06,310.68 343.32,312.60 C342.95,313.58 341.02,314.00 336.86,314.00 C330.36,314.00 328.61,312.46 330.91,308.77 C332.73,305.85 331.13,305.13 328.91,307.86 C326.64,310.66 326.53,311.98 328.36,314.48 C329.23,315.67 331.04,316.37 333.36,316.42 C336.71,316.49 337.48,317.10 337.09,319.34 C337.00,319.81 337.51,319.99 338.22,319.74 C338.92,319.49 339.37,318.55 339.21,317.65 ZM 104.00 315.88 C104.00,315.40 102.96,315.00 101.69,315.00 C100.42,315.00 98.51,314.35 97.44,313.56 C94.28,311.21 96.70,308.57 102.35,308.20 C104.91,308.03 107.00,307.46 107.00,306.93 C107.00,306.39 105.85,304.14 104.45,301.92 C102.35,298.60 101.42,297.93 99.20,298.19 C95.80,298.58 95.67,300.38 99.00,300.85 C103.36,301.46 104.49,305.00 100.33,305.00 C92.82,305.00 91.74,314.94 99.00,317.21 C100.96,317.82 104.00,317.01 104.00,315.88 ZM 183.78 316.44 C185.00,315.59 186.00,314.24 186.00,313.44 C186.00,312.36 187.37,312.00 191.50,312.00 L 197.00 312.00 L 197.00 306.00 C197.00,298.90 195.24,297.90 194.80,304.75 L 194.50 309.50 L 190.50 309.50 C186.51,309.50 186.50,309.49 186.19,305.25 C185.75,299.09 184.00,300.03 184.00,306.42 C184.00,313.40 183.33,315.00 180.39,315.00 C177.86,315.00 177.14,316.49 179.25,317.34 C181.22,318.13 181.43,318.09 183.78,316.44 ZM 207.78 316.44 C209.00,315.59 210.00,314.25 210.00,313.47 C210.00,312.33 212.69,312.00 223.75,311.78 L 237.50 311.50 L 237.79 304.25 L 238.09 297.00 L 235.23 297.00 C231.24,297.00 229.19,298.92 228.82,303.00 C228.51,306.36 228.65,306.52 232.22,307.00 C234.96,307.37 235.73,307.84 235.13,308.80 C234.57,309.71 232.36,310.01 227.91,309.80 L 221.50 309.50 L 221.19 304.69 C220.80,298.52 218.53,298.85 218.43,305.09 C218.36,309.43 218.30,309.50 214.68,309.81 L 211.00 310.12 L 211.00 305.43 L 211.00 300.74 L 206.96 301.28 C201.41,302.02 199.84,303.57 200.20,307.91 C200.48,311.28 200.73,311.52 204.31,311.81 C208.41,312.15 209.01,314.26 205.17,314.82 C202.99,315.14 202.42,316.09 203.67,317.33 C204.65,318.31 205.31,318.17 207.78,316.44 ZM 249.75 315.76 C250.44,315.21 251.00,314.14 251.00,313.38 C251.00,312.33 253.00,311.96 259.25,311.82 C263.79,311.72 269.00,311.75 270.83,311.87 C275.57,312.21 277.00,310.59 277.00,304.88 C277.00,301.21 276.63,300.00 275.50,300.00 C274.39,300.00 274.00,301.16 274.00,304.44 C274.00,306.88 273.48,309.20 272.85,309.59 C270.99,310.74 269.19,307.23 269.70,303.47 C270.05,300.82 269.80,300.00 268.64,300.00 C267.52,300.00 267.03,301.29 266.80,304.75 C266.55,308.73 266.18,309.50 264.50,309.50 C262.82,309.50 262.45,308.73 262.20,304.75 C262.03,302.14 261.47,300.00 260.95,300.00 C260.43,300.00 259.95,300.56 259.88,301.25 C259.82,301.94 259.66,302.95 259.54,303.50 C259.41,304.05 259.24,305.76 259.15,307.31 C259.01,309.92 258.74,310.10 255.25,309.81 C251.59,309.51 251.49,309.39 251.19,305.15 L 250.88 300.80 L 247.19 301.49 C242.05,302.45 240.85,303.74 241.20,307.91 C241.47,311.15 241.81,311.53 244.75,311.81 C248.66,312.19 249.32,315.00 245.50,315.00 C243.06,315.00 242.31,315.97 243.68,317.34 C244.46,318.13 247.92,317.22 249.75,315.76 ZM 52.00 307.21 C53.81,307.00 54.78,307.55 55.50,309.21 C56.64,311.83 61.29,312.83 63.56,310.95 C65.31,309.50 65.46,303.86 63.80,302.20 C62.03,300.43 58.60,300.74 55.84,302.91 C54.50,303.97 52.07,304.98 50.45,305.16 C47.74,305.47 47.47,305.86 47.19,309.86 C46.72,316.35 48.27,318.67 48.95,312.50 C49.44,308.09 49.79,307.47 52.00,307.21 ZM 117.74 312.62 C117.48,310.91 117.47,308.94 117.72,308.25 C118.48,306.13 122.44,306.82 123.51,309.25 C124.30,311.04 125.31,311.50 128.50,311.50 L 132.50 311.50 L 132.50 307.00 C132.50,302.56 132.45,302.50 128.91,302.20 C126.59,302.01 124.87,302.45 124.04,303.45 C123.33,304.30 121.55,305.00 120.08,305.00 C118.60,305.00 116.86,305.54 116.20,306.20 C114.95,307.45 114.52,315.19 115.64,316.31 C117.01,317.68 118.20,315.59 117.74,312.62 ZM 297.60 313.89 C299.04,312.30 300.75,312.00 308.45,312.00 C314.23,312.00 318.04,311.56 318.80,310.80 C320.63,308.97 320.38,300.00 318.50,300.00 C317.36,300.00 317.00,301.23 317.00,305.06 L 317.00 310.11 L 312.75 309.81 L 308.50 309.50 L 308.20 304.75 C308.03,302.14 307.49,300.00 307.00,300.00 C306.51,300.00 305.97,302.14 305.80,304.75 C305.51,309.29 305.37,309.50 302.50,309.50 L 299.50 309.50 L 299.21 302.25 C299.04,298.26 298.52,295.00 298.05,295.00 C296.88,295.00 295.66,304.37 296.50,306.99 C297.41,309.86 294.56,314.00 291.68,314.00 C288.40,314.00 287.00,312.14 287.00,307.80 C287.00,305.09 286.57,304.00 285.50,304.00 C284.46,304.00 284.00,305.05 284.00,307.42 C284.00,312.33 284.91,314.06 288.23,315.46 C291.85,316.98 295.33,316.40 297.60,313.89 ZM 23.00 311.50 C23.00,307.25 23.16,307.00 25.76,307.00 C27.67,307.00 28.83,307.70 29.51,309.25 C31.70,314.23 39.00,312.02 39.00,306.38 C39.00,301.32 33.22,299.71 28.92,303.58 C28.05,304.36 26.13,305.00 24.65,305.00 C22.67,305.00 21.69,305.69 20.98,307.57 C19.47,311.53 19.75,316.00 21.50,316.00 C22.61,316.00 23.00,314.83 23.00,311.50 ZM 155.36 313.90 C156.59,312.14 157.88,311.79 163.17,311.76 C166.65,311.74 170.06,311.29 170.75,310.74 C171.45,310.19 172.00,307.57 172.00,304.79 C172.00,298.73 169.67,298.55 169.18,304.58 C169.01,306.73 168.47,308.91 167.98,309.41 C166.31,311.10 164.00,307.88 164.00,303.88 C164.00,298.34 162.17,299.07 161.80,304.75 C161.55,308.73 161.18,309.50 159.50,309.50 C157.82,309.50 157.45,308.73 157.20,304.75 C156.98,301.42 156.46,300.00 155.45,300.00 C154.35,300.00 154.00,301.41 154.00,305.80 C154.00,308.99 153.46,312.14 152.80,312.80 C149.49,316.11 144.00,312.14 144.00,306.44 C144.00,304.32 143.60,303.13 143.00,303.50 C141.18,304.62 141.87,311.49 144.04,313.81 C146.83,316.80 153.29,316.85 155.36,313.90 ZM 306.00 315.00 C306.00,314.45 305.55,314.00 305.00,314.00 C304.45,314.00 304.00,314.45 304.00,315.00 C304.00,315.55 304.45,316.00 305.00,316.00 C305.55,316.00 306.00,315.55 306.00,315.00 ZM 44.00 310.50 C44.00,309.67 43.33,309.00 42.50,309.00 C41.67,309.00 41.00,309.67 41.00,310.50 C41.00,311.33 41.67,312.00 42.50,312.00 C43.33,312.00 44.00,311.33 44.00,310.50 ZM 70.50 309.99 C70.50,307.84 67.59,308.15 67.17,310.34 C66.92,311.68 67.32,312.08 68.66,311.83 C69.67,311.63 70.50,310.80 70.50,309.99 ZM 85.80 306.75 L 85.50 301.50 L 80.75 301.20 C75.15,300.84 74.20,302.73 79.75,303.19 C83.18,303.47 83.50,303.76 83.50,306.50 C83.50,309.37 83.29,309.51 78.75,309.80 C71.87,310.25 72.91,312.00 80.05,312.00 L 86.10 312.00 L 85.80 306.75 ZM 113.00 310.50 C113.00,309.67 112.11,309.00 111.00,309.00 C109.01,309.00 108.40,310.07 109.67,311.33 C110.88,312.55 113.00,312.02 113.00,310.50 ZM 139.00 310.50 C139.00,309.67 138.11,309.00 137.00,309.00 C135.01,309.00 134.40,310.07 135.67,311.33 C136.88,312.55 139.00,312.02 139.00,310.50 ZM 166.81 296.92 C166.61,296.33 166.02,295.85 165.50,295.85 C164.98,295.85 164.39,296.33 164.19,296.92 C163.99,297.52 164.58,298.00 165.50,298.00 C166.42,298.00 167.01,297.52 166.81,296.92 ZM 219.00 297.00 C219.00,296.45 218.32,296.00 217.50,296.00 C216.68,296.00 216.00,296.45 216.00,297.00 C216.00,297.55 216.68,298.00 217.50,298.00 C218.32,298.00 219.00,297.55 219.00,297.00 ZM 223.00 297.00 C223.00,296.45 222.55,296.00 222.00,296.00 C221.45,296.00 221.00,296.45 221.00,297.00 C221.00,297.55 221.45,298.00 222.00,298.00 C222.55,298.00 223.00,297.55 223.00,297.00 ZM 164.00 294.00 C164.00,293.45 163.55,293.00 163.00,293.00 C162.45,293.00 162.00,293.45 162.00,294.00 C162.00,294.55 162.45,295.00 163.00,295.00 C163.55,295.00 164.00,294.55 164.00,294.00 ZM 235.00 294.00 C235.00,293.45 234.55,293.00 234.00,293.00 C233.45,293.00 233.00,293.45 233.00,294.00 C233.00,294.55 233.45,295.00 234.00,295.00 C234.55,295.00 235.00,294.55 235.00,294.00 ZM 231.99 257.44 C271.48,249.20 298.76,210.99 293.05,171.92 C290.23,152.61 284.17,140.25 271.00,126.92 C264.10,119.93 261.00,117.61 254.50,114.56 C250.10,112.49 246.27,110.47 246.00,110.06 C245.29,109.02 238.92,106.93 238.06,107.46 C237.67,107.70 234.01,107.11 229.93,106.14 C217.20,103.12 200.21,104.54 187.13,109.71 C182.64,111.49 180.56,111.90 180.06,111.10 C179.68,110.48 176.09,90.51 172.09,66.73 C163.33,14.68 163.88,17.30 162.78,22.49 C161.91,26.56 155.03,70.19 148.02,116.01 C145.88,130.04 142.91,148.49 141.43,157.01 C137.34,180.61 137.98,194.18 143.94,210.12 C148.38,221.98 161.57,238.14 173.18,245.94 C189.71,257.05 212.51,261.50 231.99,257.44 ZM 107.43 211.50 C108.27,204.35 111.85,178.70 115.40,154.50 L 121.85 110.50 L 119.97 106.23 C118.38,102.60 117.15,101.51 111.80,98.98 C101.81,94.26 94.38,95.39 88.05,102.60 C82.04,109.44 82.07,110.79 88.95,147.00 C103.17,221.85 104.46,228.15 105.18,226.33 C105.58,225.32 106.60,218.65 107.43,211.50 ZM 111.77 81.65 C112.80,80.63 112.59,79.96 110.70,78.18 C108.46,76.09 108.19,76.06 105.17,77.56 C102.76,78.77 102.00,79.81 102.00,81.91 C102.00,83.42 102.28,84.95 102.63,85.29 C103.38,86.05 109.99,83.41 111.77,81.65 ZM 98.00 81.50 C98.00,78.80 97.59,78.00 96.20,78.00 C95.21,78.00 93.87,77.47 93.21,76.81 C92.30,75.90 91.45,76.17 89.51,77.99 C88.13,79.29 87.00,80.64 87.00,80.99 C87.00,82.03 93.30,84.87 95.75,84.94 C97.67,84.99 98.00,84.48 98.00,81.50 ZM 86.81 75.70 C88.74,73.65 88.84,73.04 87.77,70.20 C86.77,67.54 86.03,67.00 83.45,67.00 C81.18,67.00 80.31,67.48 80.24,68.75 C80.13,70.84 83.02,78.00 83.98,78.00 C84.35,78.00 85.62,76.96 86.81,75.70 ZM 118.01 74.75 C119.10,72.96 119.99,70.49 120.00,69.25 C120.00,67.37 119.46,67.00 116.72,67.00 C113.95,67.00 113.25,67.50 112.23,70.20 C111.16,73.04 111.26,73.65 113.19,75.70 C114.38,76.96 115.50,78.00 115.69,78.00 C115.88,78.00 116.92,76.54 118.01,74.75 ZM 87.77 59.81 C88.78,57.12 88.71,56.34 87.33,54.81 C85.06,52.30 84.27,52.51 81.99,56.25 C79.00,61.15 79.36,63.00 83.28,63.00 C86.05,63.00 86.75,62.50 87.77,59.81 ZM 120.00 62.02 C120.00,60.39 116.83,53.00 116.14,53.03 C114.60,53.11 112.00,55.87 112.00,57.43 C112.00,60.79 113.99,63.00 117.04,63.00 C118.67,63.00 120.00,62.56 120.00,62.02 ZM 94.85 52.90 C97.55,51.96 98.00,51.32 98.00,48.40 C98.00,44.43 97.20,44.27 91.09,47.04 L 86.69 49.04 L 89.02 51.52 C90.30,52.88 91.43,54.00 91.53,54.00 C91.62,54.00 93.12,53.51 94.85,52.90 ZM 20.67 345.33 C20.30,344.97 20.00,343.84 20.00,342.83 C20.00,341.36 20.79,341.00 24.03,341.00 C28.31,341.00 30.57,343.39 27.90,345.09 C26.25,346.13 21.62,346.29 20.67,345.33 ZM 20.00 335.00 C20.00,333.13 20.49,332.92 24.25,333.19 C27.22,333.41 28.50,333.95 28.50,335.00 C28.50,336.05 27.22,336.59 24.25,336.81 C20.49,337.08 20.00,336.87 20.00,335.00 ZM 107.56 343.78 C104.13,338.89 107.17,332.67 112.99,332.67 C116.76,332.67 119.00,335.02 119.00,338.97 C119.00,343.16 116.37,346.00 112.50,346.00 C110.13,346.00 108.64,345.33 107.56,343.78 ZM 201.60 338.75 C202.51,336.96 203.39,335.35 203.55,335.16 C203.87,334.79 207.00,340.51 207.00,341.45 C207.00,341.75 205.41,342.00 203.47,342.00 L 199.95 342.00 L 201.60 338.75 ZM 221.00 336.00 C221.00,332.95 221.09,332.89 225.25,333.19 C229.03,333.47 229.50,333.77 229.50,336.00 C229.50,338.23 229.03,338.53 225.25,338.81 C221.09,339.11 221.00,339.05 221.00,336.00 ZM 203.18 307.33 C203.41,305.25 204.12,304.41 205.82,304.17 C207.84,303.88 208.11,304.21 207.82,306.67 C207.59,308.75 206.88,309.59 205.18,309.83 C203.16,310.12 202.89,309.79 203.18,307.33 ZM 231.17 302.83 C231.39,301.28 232.28,300.39 233.83,300.17 C235.77,299.90 236.10,300.23 235.83,302.17 C235.61,303.72 234.72,304.61 233.17,304.83 C231.23,305.10 230.90,304.77 231.17,302.83 ZM 243.36 308.50 C242.47,306.17 243.73,304.00 245.97,304.00 C247.56,304.00 248.00,304.65 248.00,307.00 C248.00,309.35 247.56,310.00 245.97,310.00 C244.85,310.00 243.68,309.33 243.36,308.50 ZM 58.05 308.56 C56.23,306.37 57.52,303.79 60.25,304.18 C61.89,304.41 62.50,305.17 62.50,306.99 C62.50,309.90 59.92,310.81 58.05,308.56 ZM 126.05 308.56 C124.22,306.36 125.51,304.00 128.54,304.00 C130.78,304.00 131.09,304.38 130.82,306.74 C130.45,309.87 127.94,310.83 126.05,308.56 ZM 32.25 309.34 C31.56,309.06 31.00,307.75 31.00,306.42 C31.00,304.53 31.53,304.00 33.42,304.00 C36.18,304.00 37.14,305.70 35.83,308.25 C34.90,310.05 34.40,310.20 32.25,309.34 ZM 204.50 224.60 C191.97,220.62 181.44,211.71 175.85,200.35 C172.61,193.77 172.50,193.14 172.50,181.52 C172.50,170.04 172.64,169.21 175.69,162.99 C179.47,155.26 188.41,145.84 195.24,142.38 C215.42,132.15 238.95,137.13 251.70,154.31 C254.88,158.60 257.71,163.45 258.52,166.00 C258.60,166.27 259.07,167.40 259.56,168.50 C260.05,169.60 260.45,175.23 260.44,181.00 C260.43,190.28 260.08,192.37 257.47,198.96 C253.51,208.91 245.44,217.35 235.04,222.41 C228.10,225.79 227.11,226.00 218.08,225.93 C212.81,225.90 206.70,225.29 204.50,224.60 Z" fill="rgb(253,254,254)"/>
</g>
</svg>